<svg version="1.1" id="Calque_1" xmlns="http://www.w3.org/2000/svg" xmlns:xlink="http://www.w3.org/1999/xlink" viewBox="0 0 150 150" enable-background="new 0 0 150 150" xml:space="preserve">
<path fill="#1C3AA9" d="M117,62.063c-0.002-0.603-0.016-1.201-0.043-1.798V26.274l-9.396,9.397
	c-7.688-9.414-19.392-15.427-32.497-15.427c-13.638,0-25.754,6.51-33.413,16.591L57.054,52.4c1.509-2.792,3.654-5.189,6.239-7
	c2.689-2.099,6.5-3.814,11.77-3.814c0.637,0,1.128,0.075,1.49,0.215c6.529,0.516,12.19,4.119,15.522,9.35L81.174,62.054
	c13.811-0.054,29.411-0.086,35.825,0.007"/>
<path fill="#4285F4" d="M74.819,20.246c-0.602,0.002-1.201,0.016-1.797,0.043H39.03l9.397,9.397C39.013,37.377,33,49.077,33,62.182
	c0,13.638,6.51,25.753,16.591,33.414l15.565-15.404c-2.792-1.508-5.189-3.65-7-6.236c-2.098-2.689-3.814-6.5-3.814-11.77
	c0-0.637,0.074-1.128,0.214-1.489c0.516-6.531,4.12-12.191,9.351-15.524l10.903,10.9c-0.054-13.81-0.086-29.411,0.007-35.825"/>
<path fill="#ABABAB" d="M33.002,62.181c0.002,0.602,0.016,1.201,0.043,1.797v33.993l9.397-9.397
	C50.133,97.986,61.833,104,74.938,104c13.638,0,25.753-6.51,33.414-16.592L92.947,71.843c-1.51,2.792-3.653,5.19-6.238,7
	c-2.689,2.099-6.5,3.813-11.771,3.813c-0.637,0-1.128-0.074-1.489-0.217c-6.53-0.517-12.191-4.119-15.524-9.351l10.903-10.9
	C55.018,62.243,39.417,62.275,33.002,62.181"/>
<path opacity="0.5" enable-background="new    " d="M75.13,38.5c-86.446,0-69.838,75-30.949,75c7.793,0,15.131-4.04,19.809-10.909
	l5.025-7.382c3.059-4.488,9.174-4.488,12.231,0l5.023,7.382c4.676,6.869,12.015,10.909,19.808,10.909
	C143.162,113.5,162.846,38.5,75.13,38.5z M48.438,86.229c-8.02,0-13.234-5.014-15.64-8.019c-1.022-1.276-1.022-3.144,0-4.421
	c2.406-3.008,7.619-8.018,15.64-8.018c8.022,0,13.234,5.012,15.641,8.018c1.021,1.275,1.021,3.143,0,4.421
	C61.671,81.219,56.458,86.229,48.438,86.229z M101.563,86.229c-8.021,0-13.232-5.014-15.642-8.019c-1.021-1.276-1.021-3.144,0-4.421
	c2.406-3.008,7.618-8.018,15.642-8.018c8.022,0,13.232,5.012,15.643,8.018c1.021,1.275,1.021,3.143,0,4.421
	C114.797,81.219,109.582,86.229,101.563,86.229z"/>
<g enable-background="new    ">
	<path fill="#4285F4" d="M20.372,136.781h-2.109v-5.792h-5.924v5.792h-2.101v-12.85h2.101v5.256h5.924v-5.256h2.109V136.781z"/>
	<path fill="#4285F4" d="M23.413,124.485c0-0.369,0.101-0.653,0.303-0.853s0.491-0.299,0.866-0.299c0.363,0,0.646,0.1,0.848,0.299
		s0.303,0.483,0.303,0.853c0,0.352-0.101,0.628-0.303,0.831c-0.202,0.201-0.485,0.303-0.848,0.303c-0.375,0-0.664-0.102-0.866-0.303
		C23.514,125.113,23.413,124.837,23.413,124.485z M25.601,136.781h-2.065v-9.721h2.065V136.781z"/>
	<path fill="#4285F4" d="M31.833,136.957c-1.213,0-2.159-0.439-2.839-1.318s-1.02-2.112-1.02-3.7c0-1.594,0.344-2.835,1.033-3.722
		c0.688-0.889,1.642-1.332,2.861-1.332c1.277,0,2.25,0.472,2.918,1.415h0.105c-0.1-0.697-0.149-1.248-0.149-1.652v-3.542h2.074
		v13.676h-1.617l-0.36-1.274h-0.097C34.08,136.474,33.11,136.957,31.833,136.957z M32.386,135.287c0.85,0,1.468-0.238,1.854-0.717
		c0.387-0.477,0.586-1.252,0.598-2.324v-0.29c0-1.225-0.199-2.095-0.598-2.61s-1.022-0.773-1.872-0.773
		c-0.727,0-1.286,0.295-1.679,0.883c-0.393,0.59-0.589,1.429-0.589,2.519c0,1.078,0.19,1.9,0.571,2.466
		S31.625,135.287,32.386,135.287z"/>
	<path fill="#4285F4" d="M44.014,136.957c-1.512,0-2.694-0.44-3.546-1.322s-1.279-2.097-1.279-3.644
		c0-1.588,0.396-2.836,1.187-3.744s1.878-1.362,3.261-1.362c1.283,0,2.297,0.39,3.041,1.169s1.116,1.852,1.116,3.217v1.116h-6.478
		c0.029,0.943,0.284,1.669,0.765,2.176s1.157,0.76,2.03,0.76c0.574,0,1.109-0.054,1.604-0.162s1.027-0.289,1.595-0.541v1.679
		c-0.504,0.24-1.014,0.41-1.529,0.51S44.676,136.957,44.014,136.957z M43.636,128.449c-0.656,0-1.182,0.208-1.578,0.624
		s-0.631,1.022-0.708,1.819h4.412c-0.012-0.803-0.205-1.41-0.58-1.824C44.808,128.656,44.292,128.449,43.636,128.449z"/>
	<path fill="#4285F4" d="M59.747,126.885c0.416,0,0.759,0.029,1.028,0.088l-0.202,1.925c-0.293-0.07-0.598-0.105-0.914-0.105
		c-0.826,0-1.496,0.27-2.008,0.809s-0.769,1.239-0.769,2.101v5.08h-2.065v-9.721h1.617l0.272,1.714h0.105
		c0.322-0.58,0.743-1.04,1.261-1.38S59.149,126.885,59.747,126.885z"/>
	<path fill="#4285F4" d="M66.822,136.957c-1.512,0-2.694-0.44-3.546-1.322s-1.279-2.097-1.279-3.644
		c0-1.588,0.396-2.836,1.187-3.744s1.878-1.362,3.261-1.362c1.283,0,2.297,0.39,3.041,1.169s1.116,1.852,1.116,3.217v1.116h-6.478
		c0.029,0.943,0.284,1.669,0.765,2.176s1.157,0.76,2.03,0.76c0.574,0,1.109-0.054,1.604-0.162s1.027-0.289,1.595-0.541v1.679
		c-0.504,0.24-1.014,0.41-1.529,0.51S67.484,136.957,66.822,136.957z M66.444,128.449c-0.656,0-1.182,0.208-1.578,0.624
		s-0.631,1.022-0.708,1.819h4.412c-0.012-0.803-0.205-1.41-0.58-1.824C67.616,128.656,67.1,128.449,66.444,128.449z"/>
	<path fill="#4285F4" d="M78.635,125.549c-1.207,0-2.156,0.428-2.848,1.283c-0.692,0.855-1.038,2.036-1.038,3.542
		c0,1.576,0.333,2.769,0.998,3.577s1.628,1.213,2.888,1.213c0.545,0,1.072-0.054,1.582-0.162s1.039-0.248,1.59-0.418v1.802
		c-1.008,0.381-2.15,0.571-3.428,0.571c-1.881,0-3.325-0.569-4.333-1.709s-1.512-2.771-1.512-4.892c0-1.336,0.245-2.505,0.734-3.507
		s1.197-1.77,2.123-2.303c0.925-0.533,2.013-0.8,3.261-0.8c1.313,0,2.525,0.275,3.639,0.826l-0.756,1.749
		c-0.434-0.205-0.893-0.385-1.376-0.541C79.676,125.627,79.168,125.549,78.635,125.549z"/>
	<path fill="#4285F4" d="M92.547,136.781l-1.283-3.568h-4.912l-1.258,3.568h-2.215l4.809-12.902h2.285l4.807,12.902H92.547z
		 M90.711,131.402l-1.205-3.498c-0.088-0.234-0.209-0.604-0.364-1.107s-0.263-0.873-0.321-1.107
		c-0.158,0.721-0.389,1.509-0.693,2.364l-1.16,3.349H90.711z"/>
	<path fill="#4285F4" d="M104.984,127.816c0,1.342-0.439,2.37-1.318,3.085s-2.131,1.072-3.754,1.072h-1.336v4.808h-2.1v-12.85h3.699
		c1.605,0,2.809,0.328,3.608,0.984S104.984,126.539,104.984,127.816z M98.576,130.207h1.117c1.078,0,1.869-0.188,2.373-0.563
		s0.756-0.961,0.756-1.758c0-0.738-0.227-1.289-0.678-1.652s-1.154-0.545-2.109-0.545h-1.459V130.207z"/>
	<path fill="#4285F4" d="M111.988,136.781h-2.1v-11.048h-3.779v-1.802h9.658v1.802h-3.779V136.781z"/>
	<path fill="#4285F4" d="M127.871,136.781h-2.109v-5.792h-5.924v5.792h-2.102v-12.85h2.102v5.256h5.924v-5.256h2.109V136.781z"/>
	<path fill="#4285F4" d="M139.227,136.781l-1.283-3.568h-4.914l-1.256,3.568h-2.215l4.807-12.902h2.285l4.809,12.902H139.227z
		 M137.389,131.402l-1.203-3.498c-0.088-0.234-0.21-0.604-0.365-1.107s-0.262-0.873-0.32-1.107
		c-0.158,0.721-0.391,1.509-0.695,2.364l-1.16,3.349H137.389z"/>
</g>
</svg>